BUNKBOYZ RELEASED
=================

General
Complete name                    : Terminator.Salvation[2009]DVDRip[Eng]-Bunkboyz.avi
Format                           : AVI
Format/Info                      : Audio Video Interleave
File size                        : 801 MiB
Duration                         : 1h 54mn
Overall bit rate                 : 977 Kbps
Writing application              : VirtualDubMod 1.5.4.1 (build 2178/release)
Writing library                  : VirtualDubMod build 2178/release

Video
ID                               : 0
Format                           : MPEG-4 Visual
Format profile                   : Advanced Simple@L5
Format settings, BVOP            : Yes
Format settings, QPel            : No
Format settings, GMC             : No warppoints
Format settings, Matrix          : Custom
Codec ID                         : XVID
Codec ID/Hint                    : XviD
Duration                         : 1h 54mn
Bit rate                         : 587 Kbps
Width                            : 608 pixels
Height                           : 256 pixels
Display aspect ratio             : 2.35:1
Frame rate                       : 23.976 fps
Resolution                       : 8 bits
Colorimetry                      : 4:2:0
Scan type                        : Progressive
Bits/(Pixel*Frame)               : 0.157
Stream size                      : 481 MiB (60%)
Writing library                  : XviD 1.2.1 (UTC 2008-12-04)

Audio
ID                               : 1
Format                           : AC-3
Format/Info                      : Audio Coding 3
Codec ID                         : 2000
Duration                         : 1h 54mn
Bit rate mode                    : Constant
Bit rate                         : 384 Kbps
Channel(s)                       : 6 channels
Channel positions                : Front: L C R, Surround: L R, LFE
Sampling rate                    : 48.0 KHz
Video delay                      : 7ms
Stream size                      : 315 MiB (39%)
Alignment                        : Split accross interleaves
Interleave, duration             : 96 ms (2.30 video frames)
Interleave, preload duration     : 96 ms
Language                         : English


Movie screenshots : 
http://www.postimg.com/image/12000/11940.jpg 
http://www.postimg.com/image/12000/11942.jpg 
http://www.postimg.com/image/12000/11941.jpg 
http://www.postimg.com/image/12000/11944.jpg 
http://www.postimg.com/image/12000/11939.jpg


Movie Thumbnail/ScreenCaps : 
http://www.postimg.com/image/12000/11945.jpg
